<!DOCTYPE svg PUBLIC "-//W3C//DTD SVG 1.1//EN" "http://www.w3.org/Graphics/SVG/1.1/DTD/svg11.dtd">
<!-- Uploaded to: SVG Repo, www.svgrepo.com, Transformed by: SVG Repo Mixer Tools -->
<svg fill="#B59C5B" width="800px" height="800px" viewBox="0 0 48 48" data-name="Layer 1" id="Layer_1" xmlns="http://www.w3.org/2000/svg">
<g id="SVGRepo_bgCarrier" stroke-width="0"/>
<g id="SVGRepo_tracerCarrier" stroke-linecap="round" stroke-linejoin="round"/>
<g id="SVGRepo_iconCarrier">
<title/>
<path d="M46.34,20.52l-21-19a2,2,0,0,0-2.68,0l-21,19a2,2,0,0,0,2.68,3L24,5.7,43.66,23.48a2,2,0,0,0,2.69-3Z"/>
<path d="M42,26a2,2,0,0,0-2,2V43H32V32a2,2,0,0,0-2-2H18a2,2,0,0,0-2,2V43H8V28a2,2,0,0,0-4,0V45a2,2,0,0,0,2,2H42a2,2,0,0,0,2-2V28A2,2,0,0,0,42,26ZM20,43V34h8v9Z"/>
</g>
</svg>